Coordinates
version=1
nRows=7
nColumns=60
inDegrees=yes

Units are S.I. units (second, meters, Newtons, ...)
If the header above contains a line with 'inDegrees', this indicates whether rotational values are in degrees (yes) or radians (no).

endheader
time	pelvis_tilt	pelvis_list	pelvis_rotation	pelvis_tx	pelvis_ty	pelvis_tz	hip_flexion_r	hip_adduction_r	hip_rotation_r	knee_angle_r_beta	knee_angle_r	ankle_angle_r	subtalar_angle_r	mtp_angle_r	hip_flexion_l	hip_adduction_l	hip_rotation_l	knee_angle_l_beta	knee_angle_l	ankle_angle_l	subtalar_angle_l	mtp_angle_l	L5_S1_Flex_Ext	L5_S1_Lat_Bending	L5_S1_axial_rotation	L4_L5_Flex_Ext	L4_L5_Lat_Bending	L4_L5_axial_rotation	L3_L4_Flex_Ext	L3_L4_Lat_Bending	L3_L4_axial_rotation	L2_L3_Flex_Ext	L2_L3_Lat_Bending	L2_L3_axial_rotation	L1_L2_Flex_Ext	L1_L2_Lat_Bending	L1_L2_axial_rotation	L1_T12_Flex_Ext	L1_T12_Lat_Bending	L1_T12_axial_rotation	Abs_r3	Abs_r2	Abs_r1	Abs_t1	Abs_t2	arm_flex_r	arm_add_r	arm_rot_r	elbow_flex_r	pro_sup_r	wrist_flex_r	wrist_dev_r	arm_flex_l	arm_add_l	arm_rot_l	elbow_flex_l	pro_sup_l	wrist_flex_l	wrist_dev_l
     56.30000000	      0.48975513	     -0.23362187	     93.68859339	      0.41243249	      0.93215182	      0.29722244	     12.86046908	     -3.99098025	      0.80891135	      0.31385172	    -17.98237905	      7.04040673	      0.00000000	      0.00000000	     11.22688435	     -6.09994649	      1.28031507	      0.19834072	    -11.36408601	      4.52994787	      0.00000000	      0.00000000	     -6.60525228	      0.18983308	     -0.49007685	    -12.26661401	      0.25247800	     -0.52070665	    -10.85176897	      0.46156016	     -0.52070665	     -7.54914283	      0.46156016	     -0.42881724	     -6.13363727	      0.38710762	     -0.39818744	     -3.77424115	      0.29405145	     -0.36755764	    -47.18065650	      2.14742980	     -2.72566041	      0.00000000	      0.00000000	     79.79993897	    -17.29298639	     17.21649821	     45.42030144	     60.72273122	     16.54197853	     27.77173722	     83.92682803	    -17.44352087	     28.98256779	     36.31466071	     51.17795215	     26.06912746	     13.86728074
     56.31000000	      0.52239986	     -0.28363364	     93.67143136	      0.41274737	      0.93199444	      0.29924670	     13.04231081	     -3.94566189	      0.79841101	      0.31290562	    -17.92817116	      7.00960546	      0.00000000	      0.00000000	     11.39291711	     -6.15258025	      1.28993751	      0.19721176	    -11.29940170	      4.50552917	      0.00000000	      0.00000000	     -6.62021563	      0.18365689	     -0.48878970	    -12.29440245	      0.24426366	     -0.51933906	    -10.87635226	      0.44654335	     -0.51933906	     -7.56624444	      0.44654335	     -0.42769099	     -6.14753223	      0.37451312	     -0.39714163	     -3.78279121	      0.28448452	     -0.36659227	    -47.28753823	      2.07756342	     -2.71850167	      0.00000000	      0.00000000	     80.10504026	    -17.27749147	     17.20264564	     45.33451723	     60.73112706	     16.53527378	     27.76497462	     84.24981475	    -17.42545884	     28.94996015	     36.31358818	     51.17694353	     26.05975732	     13.86134070
     56.32000000	      0.61220647	     -0.28086767	     93.59663273	      0.41309738	      0.93191723	      0.30142771	     13.23751481	     -3.81019090	      1.02720971	      0.31392803	    -17.98675141	      6.53659030	      0.00000000	      0.00000000	     11.51392687	     -6.26737998	      1.45833370	      0.19632813	    -11.24877313	      4.13368013	      0.00000000	      0.00000000	     -6.62388228	      0.18359898	     -0.48192235	    -12.30121178	      0.24418665	     -0.51204250	    -10.88237619	      0.44640257	     -0.51204250	     -7.57043505	      0.44640257	     -0.42168206	     -6.15093708	      0.37439505	     -0.39156191	     -3.78488633	      0.28439483	     -0.36144177	    -47.31372872	      2.07690844	     -2.68030756	      0.00000000	      0.00000000	     80.80641706	    -16.91205745	     17.44898016	     44.09737538	     60.75993559	     16.47746049	     27.77781612	     84.67450297	    -17.24732686	     29.07668359	     35.61540927	     51.12689760	     25.96417407	     13.94210529
     56.33000000	      0.65151755	     -0.25623464	     93.57509103	      0.41324091	      0.93187621	      0.30337136	     13.29934691	     -3.77683335	      0.96545907	      0.31173437	    -17.86106379	      6.39283853	      0.00000000	      0.00000000	     11.59101980	     -6.31669825	      1.37762213	      0.19520766	    -11.18457515	      4.06235800	      0.00000000	      0.00000000	     -6.62141695	      0.18033155	     -0.50672409	    -12.29663342	      0.23984095	     -0.53839434	    -10.87832591	      0.43845812	     -0.53839434	     -7.56761744	      0.43845812	     -0.44338358	     -6.14864778	      0.36773209	     -0.41171332	     -3.78347765	      0.27933356	     -0.38004306	    -47.29611915	      2.03994650	     -2.81824735	      0.00000000	      0.00000000	     81.41633107	    -16.47498501	     17.82951665	     42.88638220	     60.75505908	     16.44416162	     27.69885970	     85.03104010	    -17.20827279	     29.26550338	     34.92086243	     50.95561219	     25.85395779	     14.04613108
     56.34000000	      0.66852907	     -0.24277760	     93.53745244	      0.41341090	      0.93185859	      0.30532365	     13.41407251	     -3.76122971	      0.95256970	      0.31112313	    -17.82604254	      6.36503340	      0.00000000	      0.00000000	     11.69334657	     -6.34161926	      1.38622070	      0.19472987	    -11.15719993	      4.04080207	      0.00000000	      0.00000000	     -6.62859399	      0.17688498	     -0.50100387	    -12.30996189	      0.23525703	     -0.53231662	    -10.89011706	      0.43007815	     -0.53231662	     -7.57582007	      0.43007815	     -0.43837839	     -6.15531238	      0.36070386	     -0.40706565	     -3.78757860	      0.27399484	     -0.37575291	    -47.34738398	      2.00095830	     -2.78643324	      0.00000000	      0.00000000	     81.63595566	    -16.43378901	     17.83921562	     42.81076287	     60.74994339	     16.44142508	     27.67905606	     85.25300061	    -17.20539921	     29.26120832	     34.91528520	     50.93075582	     25.84342741	     14.04917024
     56.35000000	      0.69804515	     -0.03753721	     93.42134188	      0.41364221	      0.93212559	      0.30731332	     13.33729010	     -3.70505429	      0.97633998	      0.31002940	    -17.76337603	      5.95342414	      0.00000000	      0.00000000	     11.59006206	     -6.40037969	      1.39240117	      0.19503202	    -11.17451159	      3.74474964	      0.00000000	      0.00000000	     -6.64200202	      0.16960175	     -0.52003550	    -12.33486194	      0.22557033	     -0.55253771	    -10.91214511	      0.41236970	     -0.55253771	     -7.59114410	      0.41236970	     -0.45503106	     -6.16776307	      0.34585189	     -0.42252884	     -3.79523995	      0.26271311	     -0.39002662	    -47.44315620	      1.91856892	     -2.89228141	      0.00000000	      0.00000000	     82.57327327	    -15.94931842	     19.08601433	     40.81047875	     59.91148337	     16.62262553	     25.78778008	     85.72954238	    -17.59046636	     31.02134538	     34.58407302	     48.10253829	     25.04871192	     14.62458201
     56.36000000	      0.77453994	     -0.01815044	     93.43250109	      0.41363824	      0.93214031	      0.30922899	     13.45025665	     -3.62933448	      1.05619699	      0.31024028	    -17.77545888	      5.70542891	      0.00000000	      0.00000000	     11.73804021	     -6.47457279	      1.26015501	      0.19542609	    -11.19709043	      3.62140065	      0.00000000	      0.00000000	     -6.62592679	      0.17866846	     -0.53181692	    -12.30500864	      0.23762905	     -0.56505548	    -10.88573512	      0.43441449	     -0.56505548	     -7.57277172	      0.43441449	     -0.46533981	     -6.15283561	      0.36434072	     -0.43210125	     -3.78605457	      0.27675744	     -0.39886269	    -47.32833245	      2.02113335	     -2.95780617	      0.00000000	      0.00000000	     82.94714676	    -15.65004700	     19.26937323	     40.06734365	     59.89348135	     16.57329298	     25.83948334	     86.06790547	    -17.47913018	     31.25684032	     33.73346034	     48.00023958	     24.84771205	     14.72305351
